<?xml version="1.0" standalone="no"?>
<!DOCTYPE svg PUBLIC "-//W3C//DTD SVG 20010904//EN"
 "http://www.w3.org/TR/2001/REC-SVG-20010904/DTD/svg10.dtd">
<svg version="1.0" xmlns="http://www.w3.org/2000/svg"
 width="284.000000pt" height="295.000000pt" viewBox="0 0 284.000000 295.000000"
 preserveAspectRatio="xMidYMid meet">

<g transform="translate(0.000000,295.000000) scale(0.100000,-0.100000)"
fill="#000000" stroke="none">
<path d="M1290 2723 c-255 -40 -472 -139 -649 -297 -224 -201 -369 -467 -412
-755 -19 -131 -7 -373 25 -491 94 -357 329 -648 654 -809 453 -227 1018 -150
1383 187 l79 74 -1 131 c-1 99 -3 121 -9 87 -18 -99 -74 -184 -162 -240 -54
-35 -182 -80 -194 -68 -3 3 17 16 43 29 26 12 71 47 100 75 65 67 93 138 92
232 l0 67 -13 -40 c-27 -85 -66 -134 -137 -170 l-28 -15 6 35 c14 88 -50 135
-185 135 -193 0 -387 -112 -439 -253 -26 -72 -8 -174 47 -260 16 -26 30 -50
30 -52 0 -15 -119 84 -206 170 -155 154 -235 288 -249 421 -8 69 7 159 37 219
37 72 124 199 187 270 135 152 189 272 177 387 -13 123 -99 223 -193 223 -92
0 -114 -75 -72 -245 30 -118 31 -248 3 -286 -39 -52 -71 -69 -133 -69 -48 0
-64 5 -94 28 -54 41 -71 72 -71 131 -1 46 5 63 51 138 63 102 84 158 76 199
-7 36 -51 75 -103 90 -22 7 -40 15 -40 19 0 4 29 20 65 35 l65 28 0 51 c0 75
32 131 109 191 170 132 217 174 248 219 30 44 33 46 33 22 0 -15 -7 -43 -15
-63 -8 -20 -13 -38 -10 -41 8 -9 92 28 134 58 22 17 53 48 67 70 15 22 28 39
30 37 9 -8 -19 -134 -37 -169 -23 -45 -20 -44 63 19 57 43 114 107 138 152 11
21 14 22 21 8 14 -24 14 -128 0 -169 -7 -20 -31 -53 -53 -74 l-42 -37 32 6
c31 6 32 6 21 -16 -56 -106 -207 -206 -313 -207 -29 0 -26 -3 31 -34 89 -48
137 -89 190 -163 62 -87 94 -177 100 -283 6 -102 -7 -173 -48 -260 -27 -58
-96 -156 -104 -148 -2 2 5 28 15 58 10 30 21 91 25 135 l6 80 -43 -80 c-24
-44 -77 -129 -117 -190 -123 -185 -162 -282 -160 -395 l1 -55 9 52 c27 162
114 272 272 342 95 43 160 56 287 55 157 -1 245 -29 336 -107 46 -40 101 -136
113 -199 5 -25 9 258 10 679 l1 722 -77 68 c-190 167 -408 270 -637 302 -73
10 -311 13 -366 4z m58 -783 c76 -71 81 -228 11 -368 -16 -32 -39 -67 -50 -78
l-21 -19 17 40 c54 120 67 178 63 265 -3 69 -9 95 -30 133 -28 50 -25 59 10
27z m-212 -625 c-52 -64 -91 -140 -111 -216 -19 -71 -19 -210 0 -284 32 -120
121 -247 223 -315 30 -21 38 -30 22 -25 -103 30 -224 138 -276 248 -96 204
-59 414 101 575 40 39 76 72 79 72 4 0 -13 -25 -38 -55z m937 -6 c80 -27 147
-70 198 -128 39 -44 84 -119 77 -126 -2 -2 -23 21 -46 51 -87 112 -197 164
-362 171 -58 3 -130 1 -160 -5 -30 -6 -57 -9 -58 -7 -7 7 58 35 110 49 78 21
168 19 241 -5z m-428 -526 c-44 -23 -94 -73 -118 -118 -28 -53 -31 -183 -4
-234 26 -51 13 -49 -18 3 -56 95 -40 221 37 298 39 39 89 67 118 67 8 0 2 -7
-15 -16z"/>
<path d="M957 1619 c-10 -39 10 -95 44 -123 46 -39 56 -31 16 13 -22 25 -38
55 -42 78 -10 58 -11 60 -18 32z"/>
</g>
</svg>
